<svg width="36" height="33" viewBox="0 0 36 33" fill="none" xmlns="http://www.w3.org/2000/svg">
<path fill-rule="evenodd" clip-rule="evenodd" d="M33.4411 12.12C34.7584 12.12 35.8275 11.0448 35.8275 9.71998C35.8275 8.39518 34.7584 7.31998 33.4411 7.31998C32.1239 7.31998 31.0548 8.39518 31.0548 9.71998C31.0548 11.0448 32.1239 12.12 33.4411 12.12Z" fill="#34A853"/>
<path fill-rule="evenodd" clip-rule="evenodd" d="M26.2821 20.12C28.9182 20.12 31.0548 17.9712 31.0548 15.32C31.0548 12.6688 28.9182 10.52 26.2821 10.52C23.6459 10.52 21.5093 12.6688 21.5093 15.32C21.5093 17.9712 23.6459 20.12 26.2821 20.12" fill="#EA4335"/>
<path fill-rule="evenodd" clip-rule="evenodd" d="M26.282 32.92C29.3573 32.92 31.8502 30.4128 31.8502 27.32C31.8502 24.2272 29.3573 21.72 26.282 21.72C23.2068 21.72 20.7139 24.2272 20.7139 27.32C20.7139 30.4128 23.2068 32.92 26.282 32.92" fill="#FBBC04"/>
<path fill-rule="evenodd" clip-rule="evenodd" d="M19.9184 10.52C19.9184 5.21918 15.6452 0.919983 10.373 0.919983C5.10068 0.919983 0.827499 5.21918 0.827499 10.52C0.827499 15.8208 5.10068 20.12 10.373 20.12C15.6452 20.12 19.9184 15.8208 19.9184 10.52Z" fill="#4285F4"/>
</svg>
