<?xml version="1.0" encoding="UTF-8"?>
<svg id="Capa_1" data-name="Capa 1" xmlns="http://www.w3.org/2000/svg" viewBox="0 0 36 33">
  <defs>
    <style>
      .cls-1 {
        fill: #34a853;
      }

      .cls-1, .cls-2, .cls-3, .cls-4 {
        fill-rule: evenodd;
      }

      .cls-2 {
        fill: #4285f4;
      }

      .cls-3 {
        fill: #ea4335;
      }

      .cls-4 {
        fill: #fbbc04;
      }
    </style>
  </defs>
  <path class="cls-1" d="M33.44,12.12c1.32,0,2.39-1.08,2.39-2.4s-1.07-2.4-2.39-2.4-2.39,1.08-2.39,2.4,1.07,2.4,2.39,2.4Z"/>
  <path class="cls-3" d="M26.28,20.12c2.64,0,4.77-2.15,4.77-4.8s-2.14-4.8-4.77-4.8-4.77,2.15-4.77,4.8,2.14,4.8,4.77,4.8"/>
  <path class="cls-4" d="M26.28,32.92c3.08,0,5.57-2.51,5.57-5.6s-2.49-5.6-5.57-5.6-5.57,2.51-5.57,5.6,2.49,5.6,5.57,5.6"/>
  <path class="cls-2" d="M19.92,10.52C19.92,5.22,15.65,.92,10.37,.92S.83,5.22,.83,10.52s4.27,9.6,9.55,9.6,9.55-4.3,9.55-9.6Z"/>
</svg>